<svg xmlns="http://www.w3.org/2000/svg" viewBox="0 0 128 128" role="img" aria-label="Agent K">
  <defs>
    <linearGradient id="c" x1="30" y1="24" x2="100" y2="100" gradientUnits="userSpaceOnUse">
      <stop stop-color="#67e8f9"/>
      <stop offset="1" stop-color="#38bdf8"/>
    </linearGradient>
  </defs>
  <rect width="128" height="128" rx="28" fill="#141418"/>

  <!-- Right-facing head + neck silhouette -->
  <path
    fill="none"
    stroke="#eef2f7"
    stroke-width="5.5"
    stroke-linecap="round"
    stroke-linejoin="round"
    d="M70 16
       C58 14 46 18 38 28
       C32 36 30 46 32 56
       C26 58 22 64 21 71
       C20 80 25 88 33 91
       C36 98 42 103 50 105
       L50 116
       C50 118 52 120 54 120
       L68 120
       C70 120 72 118 72 116
       L72 106
       C80 105 87 101 92 94
       C98 86 100 76 97 67
       C104 63 108 55 107 47
       C106 36 100 27 90 22
       C84 18 77 16 70 16 Z"
  />

  <!-- Circuit traces -->
  <g stroke="url(#c)" stroke-width="2.6" stroke-linecap="round" stroke-linejoin="round" fill="none">
    <path d="M62 40 V54"/>
    <path d="M62 70 V86"/>
    <path d="M48 62 H34"/>
    <path d="M76 62 H92"/>
    <path d="M50 50 L40 40"/>
    <path d="M74 50 L86 40"/>
    <path d="M50 74 L40 86"/>
    <path d="M74 74 L86 86"/>
    <path d="M40 40 H52 V48"/>
    <path d="M86 40 H76 V48"/>
    <path d="M40 86 H52 V78"/>
    <path d="M86 86 H76 V78"/>
  </g>

  <!-- Neural nodes -->
  <circle cx="62" cy="62" r="9" fill="#141418" stroke="#eef2f7" stroke-width="3"/>
  <circle cx="62" cy="62" r="5" fill="#22d3ee"/>
  <circle cx="40" cy="40" r="3.4" fill="#22d3ee"/>
  <circle cx="86" cy="40" r="3.2" fill="#38bdf8"/>
  <circle cx="40" cy="86" r="3.2" fill="#38bdf8"/>
  <circle cx="86" cy="86" r="3.2" fill="#22d3ee"/>
  <circle cx="34" cy="62" r="2.8" fill="#67e8f9"/>
  <circle cx="92" cy="62" r="2.8" fill="#67e8f9"/>
</svg>
